# xmcd
#
# Track frame offsets:
#	150
#	14815
#	29285
#	44832
#	59536
#	74202
#	88899
#	103065
#	119007
#	133180
#	147306
#	162458
#	176901
#	192215
#	207142
#	221925
#	237501
#	252087
#	266551
#	281374
#
# Disc length: 3942 seconds
#
# Revision: 0
# Processed by: cddbd v1.5.2PL0 Copyright (c) Steve Scherf et al.
# Submitted via: EasyCDDAExtractor 16.0.6.1
#
DISCID=530f6414
DTITLE=Συλλογικός δίσκος - Τα ρεμπέτικα Γ 1937-1960 15 Α
DYEAR=2010
DGENRE=Ρεμπέτικη
TTITLE0=Περπινιάδης Στελλάκης-Τσιτσάνης Βασίλης - Μ' ένα πικρό αναστεναγμό [χα
TTITLE0=σ., Β. Τσιτσάνης, Αθ 1940]
TTITLE1=Γκόγκος Δημήτρης-Χιώτης Μανώλης - Το τραγούδι της αγάπης[χασ., Δ.Γκόγκ
TTITLE1=ος-Δ.Αραμπατζόγλου,Αθ6.1940]
TTITLE2=Παγιουμτζής Στράτος - Είν' ευτυχύς ο άνθρωπος [απτ., Παν. Τούντας, Αθ 
TTITLE2=6.1940]
TTITLE3=Βαμβακάρης Μάρκος-Χατζηχρήστος Απόστολος - Ένα λαχείο ζήταγα [χασ.Σ. Π
TTITLE3=εριστέρης-Μ. Μάτσας, Αθ 1940]
TTITLE4=Παγιουμτζής Στράτος - Με σένα ξελογιάστηκα [απτ. Κ.Κανούλας-Σ.Παγιουμτ
TTITLE4=ζής, Αθ18.7.1940]
TTITLE5=Σταυροπούλου Νταίζη - Φίνα θα την περνάμε [χασ. Β. Τσιτσάνης, Αθήνα 9.
TTITLE5=1940]
TTITLE6=Βαμβακάρης Μάρκος-Χατζηχρήστος Απόστολος - Είσαι αφράτη σαν φρατζόλα [
TTITLE6=χασ. Μ. Βαμβακάρης, Αθήνα 1940]
TTITLE7=Παγιουμτζής Στράτος - Ο κόσμος πλούτη λαχταρά [χασ. Κ. Σκαρβέλης, Αθήν
TTITLE7=α 1939]
TTITLE8=Κάβουρας Γιώργος-Περπινιάδης Στελλάκης - Όσο κι αν πονώ [χασ. Κ. Σκαρβ
TTITLE8=έλης, Αθήνα 1938 ή 39]
TTITLE9=Βαμβακάρης Μάρκος-Χατζηχρήστος Απόστολος - Τα δυό σου χέρια πήρανε [απ
TTITLE9=τ. Μ. Βαμβακάρης, Αθήνα 1940]
TTITLE10=Γεωργακοπούλου Ιωάννα-Χιώτης Μανώλης - Το ρολογάκι που φορείς [λ. βαλ
TTITLE10=ς, Π.Τούντας-Κ.Κοφινιώτης, Αθ7.1940]
TTITLE11=Παγιουμτζής Στράτος-Τσιτσάνης Βασίλης - Χαρέμια με διαμάντια [ζεϊμπ. 
TTITLE11=Β. Τσιτσάνης, Αθ 9.1940]
TTITLE12=Χατζηχρήστος Απόστολος-Κωνσταντινίδης Γιώργος - Νυχτοπούλι [χασ. Απ. 
TTITLE12=Χατζηχρήστος, Αθ 1940]
TTITLE13=Κάβουρας Γιώργος - Μα τι να κάμω σ' αγαπώ [απτ. Ι. Καραμαούνας, Αθ 19
TTITLE13=40]
TTITLE14=Γκόγκος Δημήτρης-Χιώτης Μανώλης - Μ' έχεις μαγεμένο [χασ. Δ. Γκόγκος,
TTITLE14=Αθ6.1940]
TTITLE15=Γεωργακοπούλου Ιωάννα-Κηρομύτης Στέλιος - Πες το ναι κι ας είναι ψέμα
TTITLE15=[ζεϊμπ. Κ.Καρίπης-Σ.Παγιουμτζής, Αθ6.1940]
TTITLE16=Μπερνιδάκης Γιάννης ή Μπαξές - Θα σε κάνω μενεξέ [συρτός, Π. Τούντας-
TTITLE16=Ι.Μπερνιδάκης, Αθ2.1940]
TTITLE17=Βαμβακάρης Μάρκος-Χατζηχρήστος Απόστολος - Το πορτοφόλι [ζεϊμπ. Σ.Περ
TTITLE17=ιστέρης-Γ.Πετροπουλέας, Αθ 1940]
TTITLE18=Παγιουμτζής Στράτος-Περπινιάδης Στελλάκης - Το κόκκινό σου το γοβάκι 
TTITLE18=[χασ. Δ.Σέμσης-Σ.Περπινιάδης,Αθ5.1940]
TTITLE19=Παγιουμτζής Στράτος-Καλέλλη Νώτα - Το μινόρε της ταβέρνας [ζεϊμπ. Παν
TTITLE19=Τούντας, Αθ 12.1939]
EXTD=
EXTT0=
EXTT1=
EXTT2=
EXTT3=
EXTT4=
EXTT5=
EXTT6=
EXTT7=
EXTT8=
EXTT9=
EXTT10=
EXTT11=
EXTT12=
EXTT13=
EXTT14=
EXTT15=
EXTT16=
EXTT17=
EXTT18=
EXTT19=
PLAYORDER=
